<svg version="1.1" viewBox="0.0 0.0 960.0 540.0" fill="none" stroke="none" stroke-linecap="square" stroke-miterlimit="10" xmlns:xlink="http://www.w3.org/1999/xlink" xmlns="http://www.w3.org/2000/svg"><clipPath id="g3181206ea15_0_0.0"><path d="m0 0l960.0 0l0 540.0l-960.0 0l0 -540.0z" clip-rule="nonzero"/></clipPath><g clip-path="url(#g3181206ea15_0_0.0)"><defs><linearGradient id="g3181206ea15_0_0.1" gradientUnits="userSpaceOnUse" gradientTransform="matrix(23.237974851393545 0.0 0.0 23.237974851393545 0.0 0.0)" spreadMethod="pad" x1="5.413619158564821E-10" y1="-1.4954790521761285E-4" x2="-8.4120700051006E-5" y2="23.237825303336063"><stop offset="0.0" stop-color="#061e3a"/><stop offset="1.0" stop-color="#010101"/></linearGradient></defs><path fill="url(#g3181206ea15_0_0.1)" d="m0 0l960.0 0l0 540.0l-960.0 0z" fill-rule="evenodd"/><path fill="#132941" d="m334.958 270.0l0 0c0 -221.20961 189.98639 -400.53543 424.34644 -400.53543l0 0c112.5437 0 220.4779 42.199142 300.05823 117.31411c79.580444 75.11496 124.28821 176.9927 124.28821 283.2213l0 0c0 221.20963 -189.98633 400.53546 -424.34644 400.53546l0 0c-234.36005 0 -424.34644 -179.32584 -424.34644 -400.53546z" fill-rule="evenodd"/><path fill="#20324a" d="m386.1391 270.0l0 0c0 -196.03934 167.07184 -354.96063 373.16534 -354.96063l0 0c98.969604 0 193.88568 37.397533 263.8678 103.96556c69.982056 66.56802 109.29761 156.85365 109.29761 250.99507l0 0c0 196.03934 -167.07184 354.96063 -373.1654 354.96063l0 0c-206.0935 0 -373.16534 -158.9213 -373.16534 -354.96063z" fill-rule="evenodd"/><path fill="#2a3b52" d="m435.7139 270.0l0 0c0 -169.7558 144.87643 -307.3701 323.59055 -307.3701l0 0c85.821594 0 168.12811 32.38354 228.81311 90.02661c60.684937 57.643074 94.777466 135.82385 94.777466 217.34348l0 0c0 169.7558 -144.8764 307.37006 -323.59058 307.37006l0 0c-178.71411 0 -323.59055 -137.61426 -323.59055 -307.37006z" fill-rule="evenodd"/><path fill="#37445a" d="m491.54855 270.0l0 0c0 -145.44658 122.35672 -263.35434 273.29135 -263.35434l0 0c72.481384 0 141.99408 27.74618 193.24615 77.1347c51.252075 49.38852 80.045166 116.37372 80.045166 186.21964l0 0c0 145.4466 -122.35669 263.3543 -273.29132 263.3543l0 0c-150.93463 0 -273.29135 -117.907715 -273.29135 -263.3543z" fill-rule="evenodd"/><path fill="#404d61" d="m546.0289 270.0l0 0c0 -114.88393 95.486755 -208.01575 213.27557 -208.01575l0 0c56.56421 0 110.81171 21.915878 150.80865 60.9264c39.996887 39.01052 62.46698 91.92014 62.46698 147.08936l0 0c0 114.88391 -95.486755 208.01575 -213.27563 208.01575l0 0c-117.78882 0 -213.27557 -93.131836 -213.27557 -208.01575z" fill-rule="evenodd"/><path fill="#eeeeee" d="m334.958 323.9344l0 0c0 -0.7914734 0.64160156 -1.433075 1.433075 -1.433075l0 0c0.38006592 0 0.7445679 0.15097046 1.0133362 0.41973877c0.2687378 0.2687378 0.41973877 0.63327026 0.41973877 1.0133362l0 0c0 0.7914734 -0.6416321 1.433075 -1.433075 1.433075l0 0c-0.7914734 0 -1.433075 -0.64160156 -1.433075 -1.433075z" fill-rule="evenodd"/><path fill="#eeeeee" d="m395.43307 423.56955l0 0c0 -0.7914734 0.64160156 -1.433075 1.433075 -1.433075l0 0c0.38006592 0 0.7445679 0.15100098 1.0133362 0.41973877c0.2687378 0.2687683 0.41973877 0.63327026 0.41973877 1.0133362l0 0c0 0.7914734 -0.6416321 1.433075 -1.433075 1.433075l0 0c-0.7914734 0 -1.433075 -0.64160156 -1.433075 -1.433075z" fill-rule="evenodd"/><path fill="#eeeeee" d="m421.25198 516.105l0 0c0 -0.7914429 0.64160156 -1.4330444 1.4330444 -1.4330444l0 0c0.38009644 0 0.7445984 0.15093994 1.0133362 0.41973877c0.2687683 0.2687378 0.41973877 0.63323975 0.41973877 1.0133057l0 0c0 0.7914429 -0.64160156 1.4331055 -1.433075 1.4331055l0 0c-0.7914429 0 -1.4330444 -0.6416626 -1.4330444 -1.4331055z" fill-rule="evenodd"/><path fill="#eeeeee" d="m672.0184 496.6614l0 0c0 -0.7914429 0.64160156 -1.433075 1.4330444 -1.433075l0 0c0.38012695 0 0.7446289 0.15100098 1.0133667 0.41973877c0.2687378 0.2687683 0.41973877 0.63327026 0.41973877 1.0133362l0 0c0 0.7914734 -0.64160156 1.433075 -1.4331055 1.433075l0 0c-0.7914429 0 -1.4330444 -0.64160156 -1.4330444 -1.433075z" fill-rule="evenodd"/><path fill="#eeeeee" d="m421.25198 288.65878l0 0c0 -0.7914429 0.64160156 -1.433075 1.4330444 -1.433075l0 0c0.38009644 0 0.7445984 0.15100098 1.0133362 0.41973877c0.2687683 0.2687683 0.41973877 0.63327026 0.41973877 1.0133362l0 0c0 0.7914734 -0.64160156 1.433075 -1.433075 1.433075l0 0c-0.7914429 0 -1.4330444 -0.64160156 -1.4330444 -1.433075z" fill-rule="evenodd"/><path fill="#eeeeee" d="m656.8714 401.17847l0 0c0 -0.7914429 0.64160156 -1.433075 1.4330444 -1.433075l0 0c0.38006592 0 0.7446289 0.15100098 1.0133667 0.41973877c0.2687378 0.2687683 0.41973877 0.63327026 0.41973877 1.0133362l0 0c0 0.7914734 -0.64160156 1.433075 -1.4331055 1.433075l0 0c-0.7914429 0 -1.4330444 -0.64160156 -1.4330444 -1.433075z" fill-rule="evenodd"/><path fill="#eeeeee" d="m448.5223 128.29659l0 0c0 -0.79145813 0.64160156 -1.4330673 1.433075 -1.4330673l0 0c0.38006592 0 0.7445679 0.15098572 1.0133362 0.41973877c0.2687378 0.26875305 0.41973877 0.633255 0.41973877 1.0133286l0 0c0 0.7914734 -0.64160156 1.433075 -1.433075 1.433075l0 0c-0.7914734 0 -1.433075 -0.64160156 -1.433075 -1.433075z" fill-rule="evenodd"/><path fill="#eeeeee" d="m395.43307 46.11286l0 0c0 -0.79146576 0.64160156 -1.4330711 1.433075 -1.4330711l0 0c0.38006592 0 0.7445679 0.1509819 1.0133362 0.41973495c0.2687378 0.26875305 0.41973877 0.63326263 0.41973877 1.0133362l0 0c0 0.79146194 -0.6416321 1.4330711 -1.433075 1.4330711l0 0c-0.7914734 0 -1.433075 -0.6416092 -1.433075 -1.4330711z" fill-rule="evenodd"/><path fill="#eeeeee" d="m672.0184 88.39895l0 0c0 -0.79145813 0.64160156 -1.4330673 1.4330444 -1.4330673l0 0c0.38012695 0 0.7446289 0.15097809 1.0133667 0.41973114c0.2687378 0.26875305 0.41973877 0.63326263 0.41973877 1.0133362l0 0c0 0.79146576 -0.64160156 1.433075 -1.4331055 1.433075l0 0c-0.7914429 0 -1.4330444 -0.6416092 -1.4330444 -1.433075z" fill-rule="evenodd"/><path fill="#eeeeee" d="m514.70605 194.47769l0 0c0 -0.79145813 0.64160156 -1.433075 1.4330444 -1.433075l0 0c0.38006592 0 0.7445679 0.15098572 1.0133667 0.41973877c0.2687378 0.26875305 0.41973877 0.633255 0.41973877 1.0133362l0 0c0 0.79145813 -0.6416626 1.433075 -1.4331055 1.433075l0 0c-0.7914429 0 -1.4330444 -0.6416168 -1.4330444 -1.433075z" fill-rule="evenodd"/><path fill="#eeeeee" d="m514.70605 348.65878l0 0c0 -0.7914429 0.64160156 -1.433075 1.4330444 -1.433075l0 0c0.38006592 0 0.7445679 0.15100098 1.0133667 0.41973877c0.2687378 0.2687683 0.41973877 0.63327026 0.41973877 1.0133362l0 0c0 0.7914734 -0.6416626 1.433075 -1.4331055 1.433075l0 0c-0.7914429 0 -1.4330444 -0.64160156 -1.4330444 -1.433075z" fill-rule="evenodd"/><path fill="#eeeeee" d="m514.70605 473.3071l0 0c0 -0.7914734 0.64160156 -1.433075 1.4330444 -1.433075l0 0c0.38006592 0 0.7445679 0.15097046 1.0133667 0.41973877c0.2687378 0.2687378 0.41973877 0.63323975 0.41973877 1.0133362l0 0c0 0.7914429 -0.6416626 1.4330444 -1.4331055 1.4330444l0 0c-0.7914429 0 -1.4330444 -0.64160156 -1.4330444 -1.4330444z" fill-rule="evenodd"/><path fill="#eeeeee" d="m753.979 443.56955l0 0c0 -0.7914734 0.64160156 -1.433075 1.4330444 -1.433075l0 0c0.38012695 0 0.7446289 0.15100098 1.0133667 0.41973877c0.2687378 0.2687683 0.41973877 0.63327026 0.41973877 1.0133362l0 0c0 0.7914734 -0.64160156 1.433075 -1.4331055 1.433075l0 0c-0.7914429 0 -1.4330444 -0.64160156 -1.4330444 -1.433075z" fill-rule="evenodd"/></g></svg>