<svg version="1.1" viewBox="0.0 0.0 960.0 540.0" fill="none" stroke="none" stroke-linecap="square" stroke-miterlimit="10" xmlns:xlink="http://www.w3.org/1999/xlink" xmlns="http://www.w3.org/2000/svg"><clipPath id="g3181206ea15_0_31.0"><path d="m0 0l960.0 0l0 540.0l-960.0 0l0 -540.0z" clip-rule="nonzero"/></clipPath><g clip-path="url(#g3181206ea15_0_31.0)"><defs><linearGradient id="g3181206ea15_0_31.1" gradientUnits="userSpaceOnUse" gradientTransform="matrix(23.237974851393545 0.0 0.0 23.237974851393545 0.0 0.0)" spreadMethod="pad" x1="5.413619158564821E-10" y1="-1.4954790521761285E-4" x2="-8.4120700051006E-5" y2="23.237825303336063"><stop offset="0.0" stop-color="#061e3a"/><stop offset="1.0" stop-color="#010101"/></linearGradient></defs><path fill="url(#g3181206ea15_0_31.1)" d="m0 0l960.0 0l0 540.0l-960.0 0z" fill-rule="evenodd"/><path fill="#132941" d="m199.76378 270.0l0 0c0 -153.20465 125.46602 -277.40158 280.2362 -277.40158l0 0c74.32324 0 145.60242 29.226154 198.15692 81.24904c52.554504 52.02289 82.079285 122.58106 82.079285 196.15253l0 0c0 153.20465 -125.466 277.40155 -280.2362 277.40155l0 0c-154.7702 0 -280.2362 -124.1969 -280.2362 -277.40155z" fill-rule="evenodd"/><path fill="#20324a" d="m233.56305 270.00516l0 0c0 -135.77509 110.32831 -245.84253 246.4252 -245.84253l0 0c65.35599 0 128.03525 25.901192 174.24893 72.00561c46.213684 46.10441 72.17627 108.63543 72.17627 173.83691l0 0c0 135.77505 -110.32831 245.8425 -246.4252 245.8425l0 0c-136.0969 0 -246.4252 -110.067444 -246.4252 -245.8425z" fill-rule="evenodd"/><path fill="#2a3b52" d="m266.3015 270.0048l0 0c0 -117.57143 95.677124 -212.8819 213.7008 -212.8819l0 0c56.67694 0 111.03259 22.428562 151.10925 62.351665c40.07666 39.923096 62.591553 94.070435 62.591553 150.53023l0 0c0 117.57141 -95.677124 212.8819 -213.7008 212.8819l0 0c-118.02368 0 -213.7008 -95.310486 -213.7008 -212.8819z" fill-rule="evenodd"/><path fill="#37445a" d="m303.17392 270.00104l0 0c0 -100.73326 80.80026 -182.3937 180.47244 -182.3937l0 0c47.864258 0 93.76813 19.216423 127.61328 53.421875c33.845154 34.20546 52.85913 80.59801 52.85913 128.97183l0 0c0 100.733246 -80.80023 182.3937 -180.47241 182.3937l0 0c-99.67218 0 -180.47244 -81.66046 -180.47244 -182.3937z" fill-rule="evenodd"/><path fill="#404d61" d="m339.15195 269.99673l0 0c0 -79.5638 63.060852 -144.06299 140.85037 -144.06299l0 0c37.355835 0 73.1817 15.178017 99.59625 42.195076c26.414612 27.017044 41.25415 63.660034 41.25415 101.86792l0 0c0 79.56378 -63.060852 144.06299 -140.8504 144.06299l0 0c-77.78952 0 -140.85037 -64.49921 -140.85037 -144.06299z" fill-rule="evenodd"/><path fill="#eeeeee" d="m199.76378 307.3548l0 0c0 -0.5479431 0.42303467 -0.99212646 0.94488525 -0.99212646l0 0c0.2505951 0 0.49093628 0.104522705 0.6681366 0.29058838c0.17720032 0.18606567 0.27674866 0.43841553 0.27674866 0.7015381l0 0c0 0.5479431 -0.42304993 0.99212646 -0.94488525 0.99212646l0 0c-0.5218506 0 -0.94488525 -0.44418335 -0.94488525 -0.99212646z" fill-rule="evenodd"/><path fill="#eeeeee" d="m239.70064 376.36014l0 0c0 -0.5479431 0.42303467 -0.99212646 0.94488525 -0.99212646l0 0c0.2505951 0 0.49093628 0.104522705 0.6681366 0.29058838c0.17720032 0.18606567 0.27674866 0.43841553 0.27674866 0.7015381l0 0c0 0.5479431 -0.42303467 0.99212646 -0.94488525 0.99212646l0 0c-0.5218506 0 -0.94488525 -0.44418335 -0.94488525 -0.99212646z" fill-rule="evenodd"/><path fill="#eeeeee" d="m256.75107 440.44833l0 0c0 -0.5479126 0.42303467 -0.99209595 0.94488525 -0.99209595l0 0c0.25061035 0 0.49093628 0.104522705 0.66812134 0.29055786c0.17721558 0.18606567 0.27676392 0.43841553 0.27676392 0.7015381l0 0c0 0.5479431 -0.42303467 0.99212646 -0.94488525 0.99212646l0 0c-0.5218506 0 -0.94488525 -0.44418335 -0.94488525 -0.99212646z" fill-rule="evenodd"/><path fill="#eeeeee" d="m422.35358 426.98212l0 0c0 -0.5479431 0.42303467 -0.99212646 0.94488525 -0.99212646l0 0c0.25061035 0 0.49093628 0.104522705 0.66815186 0.29058838c0.17718506 0.18606567 0.2767334 0.43841553 0.2767334 0.7015381l0 0c0 0.5479431 -0.42303467 0.99212646 -0.94488525 0.99212646l0 0c-0.5218506 0 -0.94488525 -0.44418335 -0.94488525 -0.99212646z" fill-rule="evenodd"/><path fill="#eeeeee" d="m256.75107 282.92365l0 0c0 -0.5479431 0.42303467 -0.99212646 0.94488525 -0.99212646l0 0c0.25061035 0 0.49093628 0.104522705 0.66812134 0.29058838c0.17721558 0.18603516 0.27676392 0.438385 0.27676392 0.7015381l0 0c0 0.5479126 -0.42303467 0.99212646 -0.94488525 0.99212646l0 0c-0.5218506 0 -0.94488525 -0.44421387 -0.94488525 -0.99212646z" fill-rule="evenodd"/><path fill="#eeeeee" d="m412.35074 360.85254l0 0c0 -0.5479431 0.42303467 -0.99212646 0.94488525 -0.99212646l0 0c0.25061035 0 0.49093628 0.104522705 0.66812134 0.29058838c0.17721558 0.18606567 0.27676392 0.43841553 0.27676392 0.7015381l0 0c0 0.5479126 -0.42303467 0.99212646 -0.94488525 0.99212646l0 0c-0.5218506 0 -0.94488525 -0.44421387 -0.94488525 -0.99212646z" fill-rule="evenodd"/><path fill="#eeeeee" d="m274.76 171.85995l0 0c0 -0.5479431 0.42303467 -0.99212646 0.94488525 -0.99212646l0 0c0.25057983 0 0.49093628 0.104522705 0.66812134 0.29058838c0.17721558 0.18605042 0.27676392 0.43840027 0.27676392 0.7015381l0 0c0 0.54792786 -0.42303467 0.99212646 -0.94488525 0.99212646l0 0c-0.5218506 0 -0.94488525 -0.4441986 -0.94488525 -0.99212646z" fill-rule="evenodd"/><path fill="#eeeeee" d="m239.70064 114.94113l0 0c0 -0.5479355 0.42303467 -0.99211884 0.94488525 -0.99211884l0 0c0.2505951 0 0.49093628 0.104522705 0.6681366 0.29058075c0.17720032 0.18606567 0.27674866 0.43841553 0.27674866 0.7015381l0 0c0 0.5479431 -0.42303467 0.99212646 -0.94488525 0.99212646l0 0c-0.5218506 0 -0.94488525 -0.44418335 -0.94488525 -0.99212646z" fill-rule="evenodd"/><path fill="#eeeeee" d="m422.35358 144.22765l0 0c0 -0.5479431 0.42303467 -0.99212646 0.94488525 -0.99212646l0 0c0.25061035 0 0.49093628 0.104522705 0.66815186 0.29058838c0.17718506 0.18605042 0.2767334 0.43840027 0.2767334 0.7015381l0 0c0 0.54792786 -0.42303467 0.99212646 -0.94488525 0.99212646l0 0c-0.5218506 0 -0.94488525 -0.4441986 -0.94488525 -0.99212646z" fill-rule="evenodd"/><path fill="#eeeeee" d="m318.4668 217.69566l0 0c0 -0.54792786 0.42303467 -0.99212646 0.94488525 -0.99212646l0 0c0.25057983 0 0.49093628 0.104537964 0.66812134 0.29058838c0.17718506 0.18606567 0.27676392 0.43841553 0.27676392 0.7015381l0 0c0 0.5479431 -0.4230652 0.99212646 -0.94488525 0.99212646l0 0c-0.5218506 0 -0.94488525 -0.44418335 -0.94488525 -0.99212646z" fill-rule="evenodd"/><path fill="#eeeeee" d="m318.4668 324.47845l0 0c0 -0.5479431 0.42303467 -0.99212646 0.94488525 -0.99212646l0 0c0.25057983 0 0.49093628 0.104522705 0.66812134 0.29055786c0.17718506 0.18606567 0.27676392 0.43841553 0.27676392 0.7015686l0 0c0 0.5479126 -0.4230652 0.99209595 -0.94488525 0.99209595l0 0c-0.5218506 0 -0.94488525 -0.44418335 -0.94488525 -0.99209595z" fill-rule="evenodd"/><path fill="#eeeeee" d="m318.4668 410.80737l0 0c0 -0.5479431 0.42303467 -0.99212646 0.94488525 -0.99212646l0 0c0.25057983 0 0.49093628 0.104522705 0.66812134 0.29058838c0.17718506 0.18606567 0.27676392 0.43841553 0.27676392 0.7015381l0 0c0 0.5479431 -0.4230652 0.99212646 -0.94488525 0.99212646l0 0c-0.5218506 0 -0.94488525 -0.44418335 -0.94488525 -0.99212646z" fill-rule="evenodd"/><path fill="#eeeeee" d="m476.47922 390.21176l0 0c0 -0.5479431 0.42303467 -0.99212646 0.94488525 -0.99212646l0 0c0.25057983 0 0.49090576 0.104522705 0.66812134 0.29058838c0.17718506 0.18603516 0.2767334 0.438385 0.2767334 0.7015381l0 0c0 0.5479126 -0.42303467 0.99212646 -0.94485474 0.99212646l0 0c-0.5218506 0 -0.94488525 -0.44421387 -0.94488525 -0.99212646z" fill-rule="evenodd"/><path fill="#fffffa" d="m373.80728 267.22372l0 0c0 -61.5092 47.54486 -111.37225 106.19443 -111.37225l0 0c28.16449 0 55.175476 11.733826 75.09076 32.62018c19.915344 20.886353 31.103638 49.214325 31.103638 78.752075l0 0c0 61.509216 -47.54486 111.37225 -106.1944 111.37225l0 0c-58.649567 0 -106.19443 -49.863037 -106.19443 -111.37225z" fill-rule="evenodd"/><path fill="#f8f7f4" d="m434.09262 241.89566l0 0c0 -12.975311 9.996948 -23.493866 22.328796 -23.493866l0 0c5.9219666 0 11.601379 2.475235 15.788849 6.881195c4.1874695 4.405945 6.5399475 10.381714 6.5399475 16.61267l0 0c0 12.975296 -9.996918 23.493866 -22.328796 23.493866l0 0c-12.331848 0 -22.328796 -10.51857 -22.328796 -23.493866z" fill-rule="evenodd"/><path fill="#f8f7f4" d="m488.3806 209.37073l0 0c0 -8.92128 6.4116516 -16.153397 14.320801 -16.153397l0 0c3.7981262 0 7.440674 1.7018738 10.126343 4.7312164c2.685669 3.029358 4.194458 7.138031 4.194458 11.42218l0 0c0 8.921265 -6.411621 16.153397 -14.320801 16.153397l0 0c-7.909149 0 -14.320801 -7.232132 -14.320801 -16.153397z" fill-rule="evenodd"/><path fill="#f8f7f4" d="m493.16464 255.47498l0 0c0 -5.475647 4.269745 -9.9145355 9.536774 -9.9145355l0 0c2.5293274 0 4.9550476 1.0445709 6.743561 2.9039001c1.7884827 1.8593445 2.7932434 4.381134 2.7932434 7.0106354l0 0c0 5.475647 -4.2697754 9.914551 -9.536804 9.914551l0 0c-5.267029 0 -9.536774 -4.438904 -9.536774 -9.914551z" fill-rule="evenodd"/><path fill="#132941" d="m513.54443 362.38394l0 0c-1.732605 -6.006317 1.44281 -12.468262 8.178772 -16.643768c6.735962 -4.175537 15.851196 -5.332367 23.477661 -2.9795837l0 0c2.253357 -3.8363953 6.767334 -6.7973022 12.176575 -7.9871216c5.4093018 -1.1898193 11.078552 -0.46878052 15.292847 1.9449768l0 0c1.9008179 -3.4633179 6.0335083 -6.0915527 10.93158 -6.952057c4.8981323 -0.86050415 9.868408 0.16848755 13.147217 2.7218628l0 0c3.6655273 -3.8453064 9.882019 -5.957428 15.959534 -5.4224854c6.0775146 0.53497314 10.924438 3.6209106 12.4435425 7.922577l0 0c4.9868774 0.45602417 9.300354 2.4978027 11.825989 5.5978394c2.5256348 3.1000671 3.015625 6.954254 1.3434448 10.566772l0 0c5.257263 4.0603027 6.968811 10.029144 4.4959106 15.679138c-2.4728394 5.6499634 -8.758606 10.132202 -16.511536 11.773987c0.42541504 5.0129395 -2.9031372 10.005127 -8.702637 13.052429c-5.7994995 3.0472717 -13.164368 3.673767 -19.25586 1.638031l0 0c-1.9106445 6.2592163 -8.485046 11.410065 -16.882874 13.227203c-8.397766 1.8171387 -17.113525 -0.025177002 -22.381653 -4.7310486l0 0c-5.5982666 3.1842651 -12.540466 4.66391 -19.26062 4.105194c-6.720093 -0.55874634 -12.651978 -3.1087952 -16.457642 -7.0749207l0 0c-5.923706 1.1393738 -11.914764 -0.5055237 -14.999786 -4.1183167c-3.085022 -3.6128235 -2.6073303 -8.424469 1.1960449 -12.046936l0 0c-5.5469666 -1.722168 -8.700562 -5.9682007 -7.816345 -10.523956c0.8842468 -4.555786 5.605957 -8.388916 11.702972 -9.50061z" fill-rule="evenodd"/><path fill="#000000" fill-opacity="0.0" d="m509.5624 382.6571l0 0c2.6176453 0.8127136 5.5690002 0.99520874 8.457855 0.5230713m5.3446655 15.642731c1.2388916 -0.23831177 2.4416504 -0.5930176 3.5772705 -1.0549622m32.13922 4.024597c-0.9707031 -0.86709595 -1.8047485 -1.815094 -2.487915 -2.8278809m41.753906 -5.6686096l0 0c0.34832764 -1.1411438 0.5339966 -2.2973938 0.55389404 -3.449463m27.403564 -11.240448c-0.4529419 -5.337036 -5.0776978 -9.779419 -11.887878 -11.419037m23.903381 -16.033539c-0.892395 1.9277954 -2.3660889 3.7099 -4.305603 5.206543m-8.862915 -21.371735l0 0c0.25213623 0.7138672 0.4076538 1.4490356 0.4644165 2.195343m-28.866943 -4.695282l0 0c-0.9143677 0.9592285 -1.6436157 2.0002441 -2.165039 3.0906982m-21.914001 1.1391602l0 0c-0.45654297 0.8317871 -0.77423096 1.6944885 -0.9458008 2.5682678m-26.524048 3.473999l0 0c1.6137695 0.49783325 3.1243896 1.1426086 4.4987183 1.9201355m-36.154724 17.703247l0 0c0.23876953 0.82785034 0.56811523 1.6355896 0.98480225 2.415741" fill-rule="evenodd"/><path fill="#132941" d="m358.40152 392.32162l0 0c-0.7875061 -4.111267 1.7980042 -8.181152 6.6593933 -10.482666c4.861389 -2.3015137 11.146057 -2.4310303 16.187225 -0.33358765l0 0c1.7857056 -2.3904724 5.054138 -4.0408936 8.816589 -4.452118c3.7624512 -0.41119385 7.5770264 0.46514893 10.289917 2.363922l0 0c1.5212097 -2.167328 4.508148 -3.6235046 7.900879 -3.8518066c3.3927307 -0.22827148 6.71109 0.8036499 8.777557 2.7295837l0 0c2.748291 -2.2973633 7.1209106 -3.264679 11.225769 -2.483307c4.1048584 0.78134155 7.204712 3.1709595 7.958252 6.1348877l0 0c3.3671265 0.6524658 6.171875 2.3111267 7.689575 4.5474243c1.5177002 2.236267 1.5994873 4.830841 0.22421265 7.113312l0 0c3.3156433 3.0656128 4.0912476 7.1505127 2.0374146 10.730286c-2.0538635 3.5797424 -6.6286316 6.116577 -12.01709 6.663727c-0.037963867 3.3597412 -2.6316833 6.4425964 -6.7814026 8.060303c-4.149719 1.6177063 -9.2074585 1.5176392 -13.223724 -0.26159668l0 0c-1.7107239 4.0238647 -6.525818 6.9845886 -12.36499 7.6030273c-5.8391724 0.6184387 -11.65567 -1.2162781 -14.936493 -4.711487l0 0c-4.0216064 1.7228088 -8.847229 2.2190857 -13.388275 1.3768921c-4.5410156 -0.8421631 -8.414978 -2.9518738 -10.747955 -5.8532104l0 0c-4.1095886 0.3416443 -8.082977 -1.170929 -9.948212 -3.7870483c-1.8652344 -2.6161194 -1.2252502 -5.778839 1.602356 -7.9185486l0 0c-3.665863 -1.5328064 -5.5364075 -4.574341 -4.6362 -7.5386047c0.900177 -2.964264 4.3671265 -5.179535 8.592926 -5.490631z" fill-rule="evenodd"/><path fill="#000000" fill-opacity="0.0" d="m354.36356 405.5093l0 0c1.7299194 0.72332764 3.7283936 1.0514526 5.727112 0.9403076m2.617859 10.765564c0.8594971 -0.07144165 1.7019958 -0.2227478 2.5057068 -0.4500122m21.629303 4.9261475c-0.6045227 -0.64401245 -1.1106567 -1.3322144 -1.5097961 -2.0528564m28.812347 -0.83880615l0 0c0.31188965 -0.73361206 0.51394653 -1.4886475 0.60284424 -2.252533m19.40152 -5.5458984c0.04043579 -3.5769348 -2.819397 -6.852051 -7.3511047 -8.418518m17.330688 -8.975098c-0.7338867 1.2180176 -1.8542786 2.2984924 -3.273285 3.1567383m-4.6398315 -14.81781l0 0c0.12503052 0.49188232 0.18292236 0.9911194 0.17279053 1.4908752m-19.356476 -5.1423035l0 0c-0.6855469 0.5730591 -1.2503662 1.2134705 -1.6768494 1.9012756m-15.0017395 -0.7792969l0 0c-0.36535645 0.5205078 -0.6381836 1.0713196 -0.8121643 1.6397095m-18.294647 0.44851685l0 0c1.0667114 0.44381714 2.0535583 0.9779968 2.9388733 1.5907898m-25.785187 9.225525l0 0c0.10852051 0.5666199 0.2800293 1.1262817 0.5128784 1.673706" fill-rule="evenodd"/><path fill="#f3f3f3" fill-opacity="0.5" d="m372.2444 166.04718l0 0c-1.7600098 -6.2980957 1.3882141 -13.048874 8.108826 -17.387726c6.720642 -4.338867 15.834961 -5.5048676 23.475464 -3.0032349l0 0c2.2373657 -4.0060425 6.740326 -7.084091 12.146851 -8.303085c5.406555 -1.2190094 11.081604 -0.43579102 15.308624 2.112732l0 0c1.886322 -3.6171265 6.009308 -6.348694 10.905884 -7.225403c4.896576 -0.876709 9.873779 0.2255249 13.165405 2.9155579l0 0c3.6502075 -4.0083313 9.8602295 -6.189102 15.942963 -5.598709c6.0827026 0.5904083 10.945587 3.8459625 12.484467 8.357956l0 0c4.9912415 0.50231934 9.315796 2.6618195 11.856354 5.920578c2.5405579 3.2587433 3.047882 7.297058 1.3908997 11.071564l0 0c5.27771 4.2778473 7.0165405 10.536606 4.567566 16.440628c-2.4489746 5.904022 -8.717804 10.566284 -16.467072 12.246933c0.44784546 5.251343 -2.8601074 10.462326 -8.648834 13.62442c-5.7886963 3.1620789 -13.154236 3.7814941 -19.25763 1.6194916l0 0c-1.8837585 6.5447693 -8.438416 11.905731 -16.832092 13.766754c-8.393677 1.8610382 -17.121643 -0.11149597 -22.413086 -5.065399l0 0c-5.5868225 3.3065186 -12.525726 4.821396 -19.251434 4.202896c-6.7257385 -0.61849976 -12.671722 -3.3182678 -16.496735 -7.4902954l0 0c-5.921417 1.16362 -11.922577 -0.58862305 -15.025055 -4.3871c-3.1025085 -3.798462 -2.6459045 -8.834564 1.1431885 -12.608887l0 0c-5.55719 -1.8309479 -8.73111 -6.2928314 -7.866638 -11.05896c0.8644409 -4.7661285 5.5713806 -8.756485 11.66629 -9.890259z" fill-rule="evenodd"/><path fill="#000000" fill-opacity="0.0" d="m368.3504 187.25623l0 0c2.622467 0.86402893 5.5760193 1.0698395 8.464142 0.589798m5.4164734 16.406738c1.2384644 -0.24336243 2.440216 -0.6088104 3.5742798 -1.0868835m32.17209 4.3741913c-0.9750061 -0.9128113 -1.8136292 -1.9096527 -2.501587 -2.9735718m41.74829 -5.7281494l0 0c0.34344482 -1.1932068 0.52407837 -2.4030304 0.5389099 -3.609314m27.366486 -11.634033c-0.47677612 -5.5908813 -5.123413 -10.265686 -11.944031 -12.016464m23.843475 -16.670486c-0.8842468 2.0142365 -2.3507385 3.873001 -4.284546 5.430588m-8.961761 -22.423355l0 0c0.2553711 0.7487793 0.4142151 1.5193787 0.47436523 2.3011627m-28.901337 -5.060211l0 0c-0.91052246 0.9998779 -1.635498 2.0863495 -2.1523438 3.2256165m-21.91919 1.0838623l0 0c-0.45303345 0.8687134 -0.7670593 1.7705231 -0.934845 2.6846313m-26.521027 3.5058289l0 0c1.6167297 0.52934265 3.1309204 1.2120056 4.509308 2.03302m-36.09317 18.357986l0 0c0.24258423 0.86802673 0.57562256 1.7155151 0.9960022 2.5345001" fill-rule="evenodd"/><path fill="#f3f3f3" fill-opacity="0.5" d="m301.96188 261.77612l0 0c-0.18408203 -4.7122803 3.2069702 -8.817734 8.734222 -10.574265c5.527252 -1.7565308 12.221344 -0.85609436 17.24173 2.3192291l0 0c2.2753906 -2.366928 6.007843 -3.6627502 10.068329 -3.495514c4.060486 0.16725159 7.972107 1.7779236 10.551666 4.3448334l0 0c1.9591064 -2.1622772 5.361847 -3.2884064 9.000702 -2.9787903c3.638855 0.3096161 6.998871 2.0111847 8.887726 4.500885l0 0c3.2827759 -2.1031952 8.079376 -2.454193 12.314301 -0.9011078c4.234894 1.5531006 7.147522 4.7313232 7.4775085 8.159424l0 0c3.4719849 1.2868347 6.187195 3.60141 7.444092 6.345703c1.256897 2.7443237 0.93218994 5.64917 -0.8902283 7.96402l0 0c3.0345154 3.9673462 3.2101746 8.648285 0.46142578 12.295959c-2.7487793 3.6476746 -8.009003 5.7140503 -13.817657 5.428009c-0.5732422 3.7376099 -3.8164673 6.7418213 -8.479553 7.854645c-4.663086 1.1128235 -10.017883 0.16055298 -14.000458 -2.4898376l0 0c-2.454834 4.1996155 -8.037506 6.6984253 -14.33609 6.41687c-6.298584 -0.28155518 -12.183929 -3.2930298 -15.113342 -7.733307l0 0c-4.5437317 1.2512512 -9.746674 1.0020752 -14.435089 -0.6913147c-4.6884155 -1.6934204 -8.467438 -4.6883545 -10.484558 -8.309296l0 0c-4.4180603 -0.30245972 -8.3974 -2.6485596 -9.963074 -5.8739014c-1.5657043 -3.2253418 -0.3843994 -6.643341 2.95755 -8.557648l0 0c-3.6495667 -2.3174744 -5.1533813 -6.0177917 -3.727295 -9.171356c1.4260864 -3.153595 5.4589233 -5.0458374 9.995544 -4.6900024z" fill-rule="evenodd"/><path fill="#000000" fill-opacity="0.0" d="m295.58224 275.80057l0 0c1.722229 1.0935974 3.792328 1.7914734 5.932312 1.9998779m1.0722046 12.431824c0.92401123 0.06326294 1.8426208 0.034698486 2.7321472 -0.08493042m22.186249 9.085114c-0.5397949 -0.81814575 -0.9680786 -1.6691895 -1.2775879 -2.5385742m30.72818 3.855072l0 0c0.44754028 -0.7656555 0.78189087 -1.5734558 0.9974365 -2.409912m21.48172 -2.954712c0.6102905 -3.979248 -1.9069824 -8.104279 -6.4706116 -10.603241m19.82666 -7.120331c-0.97250366 1.2352905 -2.3335876 2.2530823 -3.976532 2.9735718m-2.576538 -17.283539l0 0c0.054779053 0.5689087 0.037017822 1.1348572 -0.052978516 1.6900635m-19.738495 -8.948166l0 0c-0.8189087 0.52464294 -1.5202332 1.1443939 -2.0822144 1.8399506m-15.806366 -3.3623352l0 0c-0.47052002 0.51930237 -0.8475952 1.087738 -1.1225281 1.6921997m-19.497772 -2.5415192l0 0c1.0623169 0.67189026 2.0254822 1.4312134 2.8683777 2.2612762m-28.844025 5.993866l0 0c0.025360107 0.6494751 0.11871338 1.3016357 0.27911377 1.9503784" fill-rule="evenodd"/><path fill="#f3f3f3" fill-opacity="0.5" d="m550.4965 209.90625l0 0c-0.18408203 -4.7122803 3.2069702 -8.817749 8.734253 -10.57428c5.5272217 -1.756546 12.221313 -0.85609436 17.2417 2.3192291l0 0c2.2753906 -2.366928 6.0078125 -3.6627502 10.068359 -3.495514c4.060486 0.16725159 7.972046 1.7779236 10.551636 4.3448334l0 0c1.9591064 -2.1622772 5.3618164 -3.2884216 9.000732 -2.9787903c3.638855 0.3096161 6.9988403 2.0111847 8.887695 4.5008698l0 0c3.2827759 -2.10318 8.079346 -2.4541779 12.31427 -0.9010925c4.2349243 1.5530853 7.147583 4.731308 7.477539 8.159424l0 0c3.4719849 1.2868195 6.187195 3.6013947 7.444092 6.3457184c1.256897 2.7443085 0.93218994 5.6491547 -0.89019775 7.9640045l0 0c3.0344849 3.9673615 3.210144 8.6483 0.46136475 12.295959c-2.7487183 3.6476746 -8.008972 5.7140656 -13.817627 5.4280243c-0.5732422 3.7376099 -3.8164673 6.741791 -8.479553 7.8546295c-4.663086 1.1128387 -10.017883 0.16053772 -14.000427 -2.4898376l0 0c-2.454834 4.1996 -8.037537 6.69841 -14.336121 6.416855c-6.298584 -0.28155518 -12.183899 -3.2929993 -15.113342 -7.7332916l0 0c-4.543762 1.251236 -9.746643 1.0020599 -14.435059 -0.69132996c-4.6884766 -1.6933899 -8.467468 -4.6883545 -10.484619 -8.30928l0 0c-4.41803 -0.30247498 -8.3974 -2.6485596 -9.963074 -5.8739014c-1.5656738 -3.2253418 -0.3843994 -6.643341 2.9575806 -8.557663l0 0c-3.6495361 -2.317459 -5.1533813 -6.0177765 -3.727295 -9.171356c1.4260864 -3.1535797 5.4589233 -5.045822 9.995544 -4.689987z" fill-rule="evenodd"/><path fill="#000000" fill-opacity="0.0" d="m544.1169 223.93066l0 0c1.722229 1.0936279 3.7922974 1.7914886 5.932312 1.9999084m1.0722046 12.431808c0.92401123 0.06326294 1.8426514 0.034698486 2.7321167 -0.08494568m22.18628 9.085144c-0.5397949 -0.81817627 -0.9680786 -1.6692047 -1.2775879 -2.5385895m30.72815 3.8550568l0 0c0.4475708 -0.7656555 0.7819214 -1.5734406 0.99749756 -2.4098969m21.48169 -2.954712c0.6102905 -3.979248 -1.9069824 -8.104279 -6.470642 -10.603256m19.826721 -7.1203156c-0.9725342 1.2352905 -2.3336182 2.2530823 -3.9765625 2.9735718m-2.576538 -17.283539l0 0c0.054748535 0.56889343 0.03704834 1.1348572 -0.052978516 1.6900635m-19.738525 -8.948166l0 0c-0.81884766 0.52464294 -1.5202026 1.1443787 -2.0821533 1.8399353m-15.8063965 -3.36232l0 0c-0.47052002 0.51930237 -0.8475952 1.087738 -1.1224976 1.6921997m-19.497803 -2.5415192l0 0c1.0623169 0.67189026 2.0255127 1.4312134 2.8684082 2.2612762m-28.844055 5.993881l0 0c0.025390625 0.6494751 0.11871338 1.3016205 0.27911377 1.9503632" fill-rule="evenodd"/></g></svg>