<svg version="1.1" viewBox="0.0 0.0 960.0 540.0" fill="none" stroke="none" stroke-linecap="square" stroke-miterlimit="10" xmlns:xlink="http://www.w3.org/1999/xlink" xmlns="http://www.w3.org/2000/svg"><clipPath id="p.0"><path d="m0 0l960.0 0l0 540.0l-960.0 0l0 -540.0z" clip-rule="nonzero"/></clipPath><g clip-path="url(#p.0)"><defs><linearGradient id="p.1" gradientUnits="userSpaceOnUse" gradientTransform="matrix(23.237974851393545 0.0 0.0 23.237974851393545 0.0 0.0)" spreadMethod="pad" x1="5.413619158564821E-10" y1="-1.4954790521761285E-4" x2="-8.4120700051006E-5" y2="23.237825303336063"><stop offset="0.0" stop-color="#061e3a"/><stop offset="1.0" stop-color="#010101"/></linearGradient></defs><path fill="url(#p.1)" d="m0 0l960.0 0l0 540.0l-960.0 0z" fill-rule="evenodd"/><path fill="#132941" d="m334.958 270.0l0 0c0 -221.20961 189.98639 -400.53543 424.34644 -400.53543l0 0c112.5437 0 220.4779 42.199142 300.05823 117.31411c79.580444 75.11496 124.28821 176.9927 124.28821 283.2213l0 0c0 221.20963 -189.98633 400.53546 -424.34644 400.53546l0 0c-234.36005 0 -424.34644 -179.32584 -424.34644 -400.53546z" fill-rule="evenodd"/><path fill="#20324a" d="m386.1391 270.0l0 0c0 -196.03934 167.07184 -354.96063 373.16534 -354.96063l0 0c98.969604 0 193.88568 37.397533 263.8678 103.96556c69.982056 66.56802 109.29761 156.85365 109.29761 250.99507l0 0c0 196.03934 -167.07184 354.96063 -373.1654 354.96063l0 0c-206.0935 0 -373.16534 -158.9213 -373.16534 -354.96063z" fill-rule="evenodd"/><path fill="#2a3b52" d="m435.7139 270.0l0 0c0 -169.7558 144.87643 -307.3701 323.59055 -307.3701l0 0c85.821594 0 168.12811 32.38354 228.81311 90.02661c60.684937 57.643074 94.777466 135.82385 94.777466 217.34348l0 0c0 169.7558 -144.8764 307.37006 -323.59058 307.37006l0 0c-178.71411 0 -323.59055 -137.61426 -323.59055 -307.37006z" fill-rule="evenodd"/><path fill="#37445a" d="m491.54855 270.0l0 0c0 -145.44658 122.35672 -263.35434 273.29135 -263.35434l0 0c72.481384 0 141.99408 27.74618 193.24615 77.1347c51.252075 49.38852 80.045166 116.37372 80.045166 186.21964l0 0c0 145.4466 -122.35669 263.3543 -273.29132 263.3543l0 0c-150.93463 0 -273.29135 -117.907715 -273.29135 -263.3543z" fill-rule="evenodd"/><path fill="#404d61" d="m546.0289 270.0l0 0c0 -114.88393 95.486755 -208.01575 213.27557 -208.01575l0 0c56.56421 0 110.81171 21.915878 150.80865 60.9264c39.996887 39.01052 62.46698 91.92014 62.46698 147.08936l0 0c0 114.88391 -95.486755 208.01575 -213.27563 208.01575l0 0c-117.78882 0 -213.27557 -93.131836 -213.27557 -208.01575z" fill-rule="evenodd"/><path fill="#eeeeee" d="m334.958 323.9344l0 0c0 -0.7914734 0.64160156 -1.433075 1.433075 -1.433075l0 0c0.38006592 0 0.7445679 0.15097046 1.0133362 0.41973877c0.2687378 0.2687378 0.41973877 0.63327026 0.41973877 1.0133362l0 0c0 0.7914734 -0.6416321 1.433075 -1.433075 1.433075l0 0c-0.7914734 0 -1.433075 -0.64160156 -1.433075 -1.433075z" fill-rule="evenodd"/><path fill="#eeeeee" d="m395.43307 423.56955l0 0c0 -0.7914734 0.64160156 -1.433075 1.433075 -1.433075l0 0c0.38006592 0 0.7445679 0.15100098 1.0133362 0.41973877c0.2687378 0.2687683 0.41973877 0.63327026 0.41973877 1.0133362l0 0c0 0.7914734 -0.6416321 1.433075 -1.433075 1.433075l0 0c-0.7914734 0 -1.433075 -0.64160156 -1.433075 -1.433075z" fill-rule="evenodd"/><path fill="#eeeeee" d="m421.25198 516.105l0 0c0 -0.7914429 0.64160156 -1.4330444 1.4330444 -1.4330444l0 0c0.38009644 0 0.7445984 0.15093994 1.0133362 0.41973877c0.2687683 0.2687378 0.41973877 0.63323975 0.41973877 1.0133057l0 0c0 0.7914429 -0.64160156 1.4331055 -1.433075 1.4331055l0 0c-0.7914429 0 -1.4330444 -0.6416626 -1.4330444 -1.4331055z" fill-rule="evenodd"/><path fill="#eeeeee" d="m672.0184 496.6614l0 0c0 -0.7914429 0.64160156 -1.433075 1.4330444 -1.433075l0 0c0.38012695 0 0.7446289 0.15100098 1.0133667 0.41973877c0.2687378 0.2687683 0.41973877 0.63327026 0.41973877 1.0133362l0 0c0 0.7914734 -0.64160156 1.433075 -1.4331055 1.433075l0 0c-0.7914429 0 -1.4330444 -0.64160156 -1.4330444 -1.433075z" fill-rule="evenodd"/><path fill="#eeeeee" d="m421.25198 288.65878l0 0c0 -0.7914429 0.64160156 -1.433075 1.4330444 -1.433075l0 0c0.38009644 0 0.7445984 0.15100098 1.0133362 0.41973877c0.2687683 0.2687683 0.41973877 0.63327026 0.41973877 1.0133362l0 0c0 0.7914734 -0.64160156 1.433075 -1.433075 1.433075l0 0c-0.7914429 0 -1.4330444 -0.64160156 -1.4330444 -1.433075z" fill-rule="evenodd"/><path fill="#eeeeee" d="m656.8714 401.17847l0 0c0 -0.7914429 0.64160156 -1.433075 1.4330444 -1.433075l0 0c0.38006592 0 0.7446289 0.15100098 1.0133667 0.41973877c0.2687378 0.2687683 0.41973877 0.63327026 0.41973877 1.0133362l0 0c0 0.7914734 -0.64160156 1.433075 -1.4331055 1.433075l0 0c-0.7914429 0 -1.4330444 -0.64160156 -1.4330444 -1.433075z" fill-rule="evenodd"/><path fill="#eeeeee" d="m448.5223 128.29659l0 0c0 -0.79145813 0.64160156 -1.4330673 1.433075 -1.4330673l0 0c0.38006592 0 0.7445679 0.15098572 1.0133362 0.41973877c0.2687378 0.26875305 0.41973877 0.633255 0.41973877 1.0133286l0 0c0 0.7914734 -0.64160156 1.433075 -1.433075 1.433075l0 0c-0.7914734 0 -1.433075 -0.64160156 -1.433075 -1.433075z" fill-rule="evenodd"/><path fill="#eeeeee" d="m395.43307 46.11286l0 0c0 -0.79146576 0.64160156 -1.4330711 1.433075 -1.4330711l0 0c0.38006592 0 0.7445679 0.1509819 1.0133362 0.41973495c0.2687378 0.26875305 0.41973877 0.63326263 0.41973877 1.0133362l0 0c0 0.79146194 -0.6416321 1.4330711 -1.433075 1.4330711l0 0c-0.7914734 0 -1.433075 -0.6416092 -1.433075 -1.4330711z" fill-rule="evenodd"/><path fill="#eeeeee" d="m672.0184 88.39895l0 0c0 -0.79145813 0.64160156 -1.4330673 1.4330444 -1.4330673l0 0c0.38012695 0 0.7446289 0.15097809 1.0133667 0.41973114c0.2687378 0.26875305 0.41973877 0.63326263 0.41973877 1.0133362l0 0c0 0.79146576 -0.64160156 1.433075 -1.4331055 1.433075l0 0c-0.7914429 0 -1.4330444 -0.6416092 -1.4330444 -1.433075z" fill-rule="evenodd"/><path fill="#eeeeee" d="m514.70605 194.47769l0 0c0 -0.79145813 0.64160156 -1.433075 1.4330444 -1.433075l0 0c0.38006592 0 0.7445679 0.15098572 1.0133667 0.41973877c0.2687378 0.26875305 0.41973877 0.633255 0.41973877 1.0133362l0 0c0 0.79145813 -0.6416626 1.433075 -1.4331055 1.433075l0 0c-0.7914429 0 -1.4330444 -0.6416168 -1.4330444 -1.433075z" fill-rule="evenodd"/><path fill="#eeeeee" d="m514.70605 348.65878l0 0c0 -0.7914429 0.64160156 -1.433075 1.4330444 -1.433075l0 0c0.38006592 0 0.7445679 0.15100098 1.0133667 0.41973877c0.2687378 0.2687683 0.41973877 0.63327026 0.41973877 1.0133362l0 0c0 0.7914734 -0.6416626 1.433075 -1.4331055 1.433075l0 0c-0.7914429 0 -1.4330444 -0.64160156 -1.4330444 -1.433075z" fill-rule="evenodd"/><path fill="#eeeeee" d="m514.70605 473.3071l0 0c0 -0.7914734 0.64160156 -1.433075 1.4330444 -1.433075l0 0c0.38006592 0 0.7445679 0.15097046 1.0133667 0.41973877c0.2687378 0.2687378 0.41973877 0.63323975 0.41973877 1.0133362l0 0c0 0.7914429 -0.6416626 1.4330444 -1.4331055 1.4330444l0 0c-0.7914429 0 -1.4330444 -0.64160156 -1.4330444 -1.4330444z" fill-rule="evenodd"/><path fill="#eeeeee" d="m753.979 443.56955l0 0c0 -0.7914734 0.64160156 -1.433075 1.4330444 -1.433075l0 0c0.38012695 0 0.7446289 0.15100098 1.0133667 0.41973877c0.2687378 0.2687683 0.41973877 0.63327026 0.41973877 1.0133362l0 0c0 0.7914734 -0.64160156 1.433075 -1.4331055 1.433075l0 0c-0.7914429 0 -1.4330444 -0.64160156 -1.4330444 -1.433075z" fill-rule="evenodd"/><path fill="#fffffa" d="m598.50134 265.98294l0 0c0 -88.80913 71.99402 -160.80316 160.8031 -160.80316l0 0c42.647644 0 83.548584 16.941711 113.70502 47.098152c30.156433 30.156448 47.098145 71.05736 47.098145 113.705l0 0c0 88.80911 -71.99402 160.80316 -160.80316 160.80316l0 0c-88.80908 0 -160.8031 -71.99405 -160.8031 -160.80316z" fill-rule="evenodd"/><path fill="#f8f7f4" d="m689.7874 229.41339l0 0c0 -18.734207 15.137695 -33.921265 33.811035 -33.921265l0 0c8.967224 0 17.5672 3.5738373 23.907959 9.935303c6.3408203 6.3614807 9.903015 14.989487 9.903015 23.985962l0 0c0 18.734192 -15.137695 33.921265 -33.810974 33.921265l0 0c-18.67334 0 -33.811035 -15.187073 -33.811035 -33.921265z" fill-rule="evenodd"/><path fill="#f8f7f4" d="m771.9921 182.45276l0 0c0 -12.880844 9.70874 -23.32283 21.685059 -23.32283l0 0c5.7512207 0 11.266907 2.4572144 15.333618 6.831085c4.0667114 4.373886 6.3513794 10.306137 6.3513794 16.491745l0 0c0 12.880844 -9.708679 23.32283 -21.684998 23.32283l0 0c-11.976318 0 -21.685059 -10.441986 -21.685059 -23.32283z" fill-rule="evenodd"/><path fill="#f8f7f4" d="m779.2362 249.01968l0 0c0 -7.9059296 6.465454 -14.314957 14.440979 -14.314957l0 0c3.829956 0 7.5030518 1.5081787 10.211243 4.192749c2.708252 2.6845856 4.2296753 6.325638 4.2296753 10.122208l0 0c0 7.905945 -6.465454 14.314972 -14.440918 14.314972l0 0c-7.975525 0 -14.440979 -6.409027 -14.440979 -14.314972z" fill-rule="evenodd"/><path fill="#132941" d="m810.10297 403.38644l0 0c-2.6229858 -8.6718445 2.1860352 -18.0018 12.386353 -24.030823c10.200378 -6.0290527 24.003174 -7.6997986 35.55133 -4.3032837l0 0c3.4124756 -5.5391235 10.248047 -9.814392 18.439148 -11.532562c8.191101 -1.7181702 16.775635 -0.67749023 23.156921 2.8072815l0 0c2.878662 -5.000458 9.136841 -8.795349 16.553833 -10.038055c7.417053 -1.2426758 14.943237 0.24267578 19.907837 3.9290466l0 0c5.5509644 -5.552063 14.964478 -8.601929 24.167236 -7.8299255c9.202759 0.7720032 16.541992 5.227234 18.841858 11.437897l0 0c7.5513306 0.6581116 14.082825 3.6058044 17.906921 8.081512c3.8240967 4.475708 4.565735 10.040375 2.0332642 15.256256l0 0c7.960327 5.8619385 10.551453 14.479706 6.8063965 22.637299c-3.7450562 8.157593 -13.263733 14.629425 -25.003723 17.000305c0.64367676 7.2376404 -4.3970337 14.445618 -13.17926 18.845612c-8.782166 4.4000244 -19.93451 5.305023 -29.158325 2.3661804l0 0c-2.8937988 9.03717 -12.849609 16.474365 -25.566101 19.09845c-12.716553 2.6240845 -25.914124 -0.035369873 -33.89093 -6.829376l0 0c-8.477478 4.5977783 -18.989868 6.734497 -29.16571 5.9282227c-10.175903 -0.80630493 -19.15802 -4.487732 -24.920288 -10.213837l0 0c-8.970093 1.6453857 -18.04187 -0.7291565 -22.713013 -5.94516c-4.6711426 -5.2160034 -3.9473267 -12.163116 1.8123169 -17.393494l0 0c-8.399353 -2.4861145 -13.174255 -8.616364 -11.834839 -15.194061c1.3394165 -6.577667 8.489624 -12.112244 17.722107 -13.717682z" fill-rule="evenodd"/><path fill="#000000" fill-opacity="0.0" d="m804.0712 432.65714l0 0c3.963684 1.1732178 8.4328 1.4365845 12.807251 0.7546997m8.091553 22.584717c1.8760376 -0.3441162 3.6973877 -0.85632324 5.416992 -1.523346m48.66632 5.808838c-1.4697876 -1.2518616 -2.732605 -2.620575 -3.7669678 -4.082794m63.226257 -8.186798l0 0c0.5275879 -1.6476135 0.8088989 -3.3170166 0.83917236 -4.980377m41.496826 -16.230621c-0.68530273 -7.7055664 -7.6879272 -14.119232 -18.000061 -16.486115m36.197205 -23.150696c-1.3514404 2.7834167 -3.583191 5.3565063 -6.5202026 7.517517m-13.418518 -30.85611l0 0c0.38165283 1.0306702 0.6170654 2.092102 0.7030029 3.1696472m-43.711304 -6.7773743l0 0c-1.3847046 1.3849792 -2.4890747 2.8880615 -3.2787476 4.4624634m-33.18329 1.6460571l0 0c-0.6913452 1.2009277 -1.1725464 2.4465332 -1.4324341 3.7080994m-40.164307 5.017334l0 0c2.4436035 0.71868896 4.731018 1.6495056 6.8120117 2.7720337m-54.749023 25.562134l0 0c0.36151123 1.195221 0.8601074 2.3614502 1.4910278 3.487793" fill-rule="evenodd"/><path fill="#132941" d="m575.178 446.61453l0 0c-1.1925049 -5.935913 2.7226562 -11.812134 10.0841675 -15.135132c7.361511 -3.322998 16.878235 -3.5100098 24.511963 -0.48165894l0 0c2.7041016 -3.4513855 7.6533813 -5.8343506 13.350769 -6.42807c5.6974487 -0.59368896 11.473816 0.6715698 15.581848 3.413086l0 0c2.3035278 -3.129242 6.826599 -5.23172 11.964111 -5.56131c5.137512 -0.32962036 10.162476 1.1603088 13.291687 3.9410095l0 0c4.161682 -3.3170166 10.783081 -4.7135925 16.998962 -3.5854797c6.2158813 1.1281433 10.909973 4.578369 12.050964 8.857758l0 0c5.098816 0.9420471 9.345947 3.336853 11.644165 6.5656433c2.2982788 3.2288208 2.4221191 6.9749146 0.3395996 10.270416l0 0c5.020752 4.4262085 6.1952515 10.324097 3.085144 15.492645c-3.1101074 5.1685486 -10.037598 8.831268 -18.197205 9.621307c-0.057495117 4.8508606 -3.9851074 9.301971 -10.268921 11.637665c-6.2838135 2.3356934 -13.942627 2.1912231 -20.024414 -0.37771606l0 0c-2.5905151 5.809784 -9.881897 10.084534 -18.72406 10.9774475c-8.842163 0.8929138 -17.649902 -1.756073 -22.617981 -6.8025513l0 0c-6.089905 2.4874268 -13.397217 3.2039795 -20.27362 1.9880066c-6.876343 -1.2159729 -12.742615 -4.262024 -16.27539 -8.451019l0 0c-6.2230835 0.49325562 -12.239929 -1.6906433 -15.064392 -5.467865c-2.824463 -3.7771912 -1.8553467 -8.343658 2.4264526 -11.433014l0 0c-5.5511475 -2.2130737 -8.383667 -6.604553 -7.020508 -10.88443c1.3630981 -4.2798767 6.613037 -7.478363 13.012085 -7.9275208z" fill-rule="evenodd"/><path fill="#000000" fill-opacity="0.0" d="m569.0634 465.65527l0 0c2.6195679 1.0443726 5.645813 1.5180969 8.672363 1.3576355m3.9641724 15.54361c1.3015747 -0.103149414 2.5773315 -0.32162476 3.7943726 -0.64974976m32.752808 7.1125183c-0.9154053 -0.9298706 -1.6818237 -1.9234924 -2.286255 -2.9639893m43.629944 -1.2110901l0 0c0.47229004 -1.0592041 0.7782593 -2.149353 0.91290283 -3.2522583m29.379272 -8.007294c0.06121826 -5.1644897 -4.269348 -9.893188 -11.131592 -12.154907m26.24347 -12.958496c-1.1113281 1.758606 -2.8078613 3.3186646 -4.956665 4.5578003m-7.026001 -21.394318l0 0c0.18933105 0.71017456 0.27697754 1.4309998 0.2616577 2.1525269m-29.311096 -7.424591l0 0c-1.038147 0.8274231 -1.8934326 1.7520752 -2.5392456 2.7451172m-22.716797 -1.1251831l0 0c-0.5532837 0.7515564 -0.9663696 1.546814 -1.2298584 2.3674927m-27.703186 0.6475525l0 0c1.6152954 0.6408081 3.1096191 1.4120789 4.4502563 2.296875m-39.04596 13.320007l0 0c0.16436768 0.81814575 0.42407227 1.6261597 0.7766113 2.416565" fill-rule="evenodd"/><path fill="#f3f3f3" fill-opacity="0.5" d="m596.1392 119.90197l0 0c-2.6651 -9.093483 2.102234 -18.84085 12.279053 -25.105927c10.176819 -6.2650757 23.978271 -7.9491043 35.547913 -4.337494l0 0c3.3880005 -5.784294 10.206665 -10.228806 18.393555 -11.989159c8.18689 -1.7603607 16.780396 -0.6297989 23.181152 3.0497055l0 0c2.8564453 -5.2227325 9.099731 -9.166962 16.514404 -10.433067c7.414673 -1.2661057 14.951416 0.32509613 19.935791 4.208969l0 0c5.527405 -5.7876663 14.93103 -8.936745 24.141785 -8.084595c9.210815 0.85214233 16.574402 5.552452 18.904602 12.067078l0 0c7.5580444 0.72501373 14.106506 3.8428268 17.953491 8.547882c3.847046 4.705063 4.6151733 10.535812 2.106018 15.985779l0 0c7.9917603 6.176346 10.624695 15.213051 6.91626 23.737785c-3.708435 8.524727 -13.201111 15.256737 -24.935547 17.683754c0.67803955 7.582199 -4.3311157 15.1063385 -13.096741 19.672256c-8.765625 4.565918 -19.918945 5.460663 -29.16101 2.3393402l0 0c-2.8526 9.449844 -12.778137 17.19069 -25.488342 19.878204c-12.710205 2.6875153 -25.926514 -0.16011047 -33.939087 -7.3125763l0 0c-8.4599 4.77446 -18.967224 6.962097 -29.151672 6.069412c-10.184448 -0.8926697 -19.188232 -4.7904663 -24.980164 -10.814102l0 0c-8.966614 1.6804199 -18.053833 -0.8492584 -22.75177 -6.3335724c-4.697937 -5.484314 -4.0064087 -12.755783 1.7312622 -18.205597l0 0c-8.414978 -2.6433258 -13.221069 -9.0855255 -11.911987 -15.967209c1.309082 -6.881691 8.4366455 -12.643463 17.665955 -14.280785z" fill-rule="evenodd"/><path fill="#000000" fill-opacity="0.0" d="m590.2424 150.52516l0 0c3.9710693 1.247406 8.4435425 1.5444031 12.816895 0.8511505m8.201721 23.688797c1.8753662 -0.3514557 3.6951294 -0.87916565 5.4123535 -1.5695038m48.716797 6.314041c-1.4763794 -1.3179016 -2.7462769 -2.757187 -3.788025 -4.2933044m63.217712 -8.272827l0 0c0.52008057 -1.7228546 0.79364014 -3.469696 0.8161011 -5.2113953m41.440063 -16.799393c-0.7219238 -8.072433 -7.7580566 -14.821991 -18.086182 -17.349518m36.105347 -24.071152c-1.3389893 2.9083176 -3.5596313 5.5922165 -6.487915 7.84124m-13.570129 -32.37578l0 0c0.3866577 1.0811081 0.62719727 2.193756 0.7182617 3.322525m-43.763916 -7.304741l0 0c-1.3788452 1.4437332 -2.4766846 3.0125046 -3.2592773 4.657463m-33.191345 1.5661087l0 0c-0.68603516 1.2543259 -1.16156 2.556427 -1.4155884 3.8762894m-40.15973 5.0633163l0 0c2.44812 0.76421356 4.741028 1.7498245 6.828247 2.9351807m-54.65454 26.508308l0 0c0.36730957 1.2533188 0.87158203 2.476944 1.5081177 3.6594238" fill-rule="evenodd"/><path fill="#f3f3f3" fill-opacity="0.5" d="m489.71573 258.1266l0 0c-0.2793579 -6.80455 4.8549805 -12.732773 13.224396 -15.269104c8.369385 -2.5363464 18.506042 -1.2359619 26.10852 3.3493195l0 0c3.4451904 -3.4178162 9.096863 -5.28891 15.245483 -5.0473175c6.1486206 0.2415924 12.07196 2.5674896 15.978394 6.27417l0 0c2.9663086 -3.1222992 8.118713 -4.7483826 13.628906 -4.3012085c5.510193 0.44717407 10.598267 2.9042969 13.458801 6.499466l0 0c4.970642 -3.0369568 12.233826 -3.543686 18.646729 -1.3009338c6.412903 2.242752 10.82373 6.8321686 11.323914 11.782394l0 0c5.2575684 1.8582458 9.369385 5.2005615 11.272949 9.163391c1.9036255 3.962799 1.4123535 8.15741 -1.3469238 11.5000305l0 0c4.59552 5.728943 4.8621216 12.48822 0.7003174 17.755432c-4.161865 5.2671814 -12.126831 8.250946 -20.922607 7.837799c-0.8675537 5.3970947 -5.7781982 9.735077 -12.839111 11.341919c-7.060913 1.606842 -15.169556 0.23162842 -21.20044 -3.5956116l0 0c-3.7167358 6.0641785 -12.169922 9.672363 -21.70758 9.265686c-9.537659 -0.40670776 -18.44989 -4.755371 -22.886353 -11.167236l0 0c-6.880188 1.8067017 -14.758728 1.4467773 -21.858368 -0.9985657c-7.09964 -2.4453735 -12.822388 -6.770172 -15.877319 -11.99884l0 0c-6.6900635 -0.43685913 -12.716064 -3.824707 -15.087311 -8.482147c-2.3712463 -4.65744 -0.5829468 -9.593018 4.477356 -12.357239l0 0c-5.5266113 -3.3464966 -7.804291 -8.689789 -5.6452637 -13.24353c2.159027 -4.553772 8.265503 -7.2861023 15.135132 -6.7721863z" fill-rule="evenodd"/><path fill="#000000" fill-opacity="0.0" d="m480.05722 278.37778l0 0c2.6080322 1.5792236 5.7427673 2.5870056 8.983246 2.88797m1.6252136 17.95163c1.3992004 0.09136963 2.7902222 0.05014038 4.137146 -0.12258911m33.59665 13.119415c-0.8175049 -1.1814575 -1.4661255 -2.4103394 -1.9349365 -3.6657715m46.530518 5.5673523l0 0c0.6776123 -1.1055908 1.1837769 -2.2720337 1.5101318 -3.4798584m32.528137 -4.266205c0.92370605 -5.7460327 -2.8886719 -11.702637 -9.799438 -15.311249m30.021545 -10.281372c-1.4724731 1.7837524 -3.5333862 3.253418 -6.021118 4.293762m-3.9037476 -24.95755l0 0c0.08300781 0.8215027 0.05621338 1.6387634 -0.08001709 2.4404602m-29.890137 -12.921585l0 0c-1.2399292 0.75756836 -2.3018188 1.6524658 -3.15271 2.6568298m-23.93518 -4.85553l0 0c-0.71240234 0.7498779 -1.2833252 1.570694 -1.699585 2.4435272m-29.52472 -3.6703644l0 0c1.6086426 0.97024536 3.0672607 2.0667267 4.343689 3.2653503m-43.676178 8.654587l0 0c0.038513184 0.9378662 0.17993164 1.8795776 0.42294312 2.8163452" fill-rule="evenodd"/><path fill="#f3f3f3" fill-opacity="0.5" d="m866.06354 183.2329l0 0c-0.27941895 -6.80455 4.8549194 -12.732788 13.224365 -15.269119c8.369385 -2.5363312 18.505981 -1.2359619 26.10852 3.3493347l0 0c3.4451904 -3.4178162 9.096863 -5.28891 15.245483 -5.047333c6.1485596 0.2415924 12.07196 2.567505 15.978394 6.27417l0 0c2.9663086 -3.1222992 8.118713 -4.7483673 13.628906 -4.3012085c5.510132 0.44717407 10.598267 2.9042969 13.458801 6.499466l0 0c4.970642 -3.0369415 12.233826 -3.543686 18.646729 -1.3009338c6.412903 2.242752 10.82373 6.8321686 11.323914 11.782394l0 0c5.2575684 1.8582458 9.369324 5.2005615 11.272949 9.163391c1.9036255 3.9628143 1.4122925 8.15741 -1.3469238 11.5000305l0 0c4.59552 5.728943 4.8621216 12.488235 0.70025635 17.755432c-4.161804 5.2671967 -12.126831 8.250946 -20.922546 7.837799c-0.8675537 5.3970947 -5.7781982 9.735092 -12.839111 11.341934c-7.060913 1.606842 -15.169556 0.23161316 -21.2005 -3.5956116l0 0c-3.7166748 6.0641785 -12.169861 9.672363 -21.70752 9.265671c-9.537659 -0.40670776 -18.44989 -4.755371 -22.886353 -11.167221l0 0c-6.880188 1.8067017 -14.758728 1.4467773 -21.858398 -0.99858093c-7.0996094 -2.4453583 -12.822388 -6.770157 -15.877258 -11.998825l0 0c-6.6901245 -0.4368744 -12.7161255 -3.824707 -15.087341 -8.482147c-2.3712769 -4.65744 -0.5829468 -9.593018 4.477356 -12.357239l0 0c-5.5266113 -3.3465118 -7.8043213 -8.689804 -5.6452637 -13.243546c2.1589966 -4.5537567 8.265503 -7.286087 15.135132 -6.772171z" fill-rule="evenodd"/><path fill="#000000" fill-opacity="0.0" d="m856.40497 203.48409l0 0c2.6080322 1.5792236 5.742798 2.5869904 8.983276 2.88797m1.6251831 17.951614c1.399231 0.09136963 2.7902222 0.05014038 4.137146 -0.12258911m33.59668 13.119415c-0.8175049 -1.1814423 -1.4661255 -2.4103546 -1.9349365 -3.6657715m46.530518 5.5673676l0 0c0.6776123 -1.1055908 1.1837769 -2.2720337 1.5100708 -3.4798737m32.5282 -4.2661896c0.923645 -5.746048 -2.8886719 -11.702652 -9.799438 -15.311264m30.021484 -10.281372c-1.4724121 1.7837524 -3.5333252 3.253418 -6.021057 4.293762m-3.9037476 -24.957535l0 0c0.08300781 0.8214874 0.05621338 1.6387482 -0.08001709 2.440445m-29.890137 -12.921585l0 0c-1.2399292 0.75756836 -2.30188 1.6524811 -3.15271 2.656845m-23.93518 -4.855545l0 0c-0.7124634 0.7498779 -1.2833252 1.570694 -1.699585 2.4435425m-29.52478 -3.6703796l0 0c1.6087036 0.97024536 3.0673218 2.0667267 4.34375 3.2653503m-43.676147 8.654602l0 0c0.03845215 0.9378357 0.1798706 1.8795624 0.4229126 2.81633" fill-rule="evenodd"/></g></svg>