<svg version="1.1" viewBox="0.0 0.0 960.0 540.0" fill="none" stroke="none" stroke-linecap="square" stroke-miterlimit="10" xmlns:xlink="http://www.w3.org/1999/xlink" xmlns="http://www.w3.org/2000/svg"><clipPath id="g3181206ea15_0_93.0"><path d="m0 0l960.0 0l0 540.0l-960.0 0l0 -540.0z" clip-rule="nonzero"/></clipPath><g clip-path="url(#g3181206ea15_0_93.0)"><defs><linearGradient id="g3181206ea15_0_93.1" gradientUnits="userSpaceOnUse" gradientTransform="matrix(23.237974851393545 0.0 0.0 23.237974851393545 0.0 0.0)" spreadMethod="pad" x1="5.413619158564821E-10" y1="-1.4954790521761285E-4" x2="-8.4120700051006E-5" y2="23.237825303336063"><stop offset="0.0" stop-color="#061e3a"/><stop offset="1.0" stop-color="#010101"/></linearGradient></defs><path fill="url(#g3181206ea15_0_93.1)" d="m0 0l960.0 0l0 540.0l-960.0 0z" fill-rule="evenodd"/><path fill="#132941" d="m199.76378 270.0l0 0c0 -153.20465 125.46602 -277.40158 280.2362 -277.40158l0 0c74.32324 0 145.60242 29.226154 198.15692 81.24904c52.554504 52.02289 82.079285 122.58106 82.079285 196.15253l0 0c0 153.20465 -125.466 277.40155 -280.2362 277.40155l0 0c-154.7702 0 -280.2362 -124.1969 -280.2362 -277.40155z" fill-rule="evenodd"/><path fill="#20324a" d="m233.56305 270.00516l0 0c0 -135.77509 110.32831 -245.84253 246.4252 -245.84253l0 0c65.35599 0 128.03525 25.901192 174.24893 72.00561c46.213684 46.10441 72.17627 108.63543 72.17627 173.83691l0 0c0 135.77505 -110.32831 245.8425 -246.4252 245.8425l0 0c-136.0969 0 -246.4252 -110.067444 -246.4252 -245.8425z" fill-rule="evenodd"/><path fill="#2a3b52" d="m266.3015 270.0048l0 0c0 -117.57143 95.677124 -212.8819 213.7008 -212.8819l0 0c56.67694 0 111.03259 22.428562 151.10925 62.351665c40.07666 39.923096 62.591553 94.070435 62.591553 150.53023l0 0c0 117.57141 -95.677124 212.8819 -213.7008 212.8819l0 0c-118.02368 0 -213.7008 -95.310486 -213.7008 -212.8819z" fill-rule="evenodd"/><path fill="#37445a" d="m303.17392 270.00104l0 0c0 -100.73326 80.80026 -182.3937 180.47244 -182.3937l0 0c47.864258 0 93.76813 19.216423 127.61328 53.421875c33.845154 34.20546 52.85913 80.59801 52.85913 128.97183l0 0c0 100.733246 -80.80023 182.3937 -180.47241 182.3937l0 0c-99.67218 0 -180.47244 -81.66046 -180.47244 -182.3937z" fill-rule="evenodd"/><path fill="#404d61" d="m339.15195 269.99673l0 0c0 -79.5638 63.060852 -144.06299 140.85037 -144.06299l0 0c37.355835 0 73.1817 15.178017 99.59625 42.195076c26.414612 27.017044 41.25415 63.660034 41.25415 101.86792l0 0c0 79.56378 -63.060852 144.06299 -140.8504 144.06299l0 0c-77.78952 0 -140.85037 -64.49921 -140.85037 -144.06299z" fill-rule="evenodd"/><path fill="#eeeeee" d="m199.76378 307.3548l0 0c0 -0.5479431 0.42303467 -0.99212646 0.94488525 -0.99212646l0 0c0.2505951 0 0.49093628 0.104522705 0.6681366 0.29058838c0.17720032 0.18606567 0.27674866 0.43841553 0.27674866 0.7015381l0 0c0 0.5479431 -0.42304993 0.99212646 -0.94488525 0.99212646l0 0c-0.5218506 0 -0.94488525 -0.44418335 -0.94488525 -0.99212646z" fill-rule="evenodd"/><path fill="#eeeeee" d="m239.70064 376.36014l0 0c0 -0.5479431 0.42303467 -0.99212646 0.94488525 -0.99212646l0 0c0.2505951 0 0.49093628 0.104522705 0.6681366 0.29058838c0.17720032 0.18606567 0.27674866 0.43841553 0.27674866 0.7015381l0 0c0 0.5479431 -0.42303467 0.99212646 -0.94488525 0.99212646l0 0c-0.5218506 0 -0.94488525 -0.44418335 -0.94488525 -0.99212646z" fill-rule="evenodd"/><path fill="#eeeeee" d="m256.75107 440.44833l0 0c0 -0.5479126 0.42303467 -0.99209595 0.94488525 -0.99209595l0 0c0.25061035 0 0.49093628 0.104522705 0.66812134 0.29055786c0.17721558 0.18606567 0.27676392 0.43841553 0.27676392 0.7015381l0 0c0 0.5479431 -0.42303467 0.99212646 -0.94488525 0.99212646l0 0c-0.5218506 0 -0.94488525 -0.44418335 -0.94488525 -0.99212646z" fill-rule="evenodd"/><path fill="#eeeeee" d="m422.35358 426.98212l0 0c0 -0.5479431 0.42303467 -0.99212646 0.94488525 -0.99212646l0 0c0.25061035 0 0.49093628 0.104522705 0.66815186 0.29058838c0.17718506 0.18606567 0.2767334 0.43841553 0.2767334 0.7015381l0 0c0 0.5479431 -0.42303467 0.99212646 -0.94488525 0.99212646l0 0c-0.5218506 0 -0.94488525 -0.44418335 -0.94488525 -0.99212646z" fill-rule="evenodd"/><path fill="#eeeeee" d="m256.75107 282.92365l0 0c0 -0.5479431 0.42303467 -0.99212646 0.94488525 -0.99212646l0 0c0.25061035 0 0.49093628 0.104522705 0.66812134 0.29058838c0.17721558 0.18603516 0.27676392 0.438385 0.27676392 0.7015381l0 0c0 0.5479126 -0.42303467 0.99212646 -0.94488525 0.99212646l0 0c-0.5218506 0 -0.94488525 -0.44421387 -0.94488525 -0.99212646z" fill-rule="evenodd"/><path fill="#eeeeee" d="m412.35074 360.85254l0 0c0 -0.5479431 0.42303467 -0.99212646 0.94488525 -0.99212646l0 0c0.25061035 0 0.49093628 0.104522705 0.66812134 0.29058838c0.17721558 0.18606567 0.27676392 0.43841553 0.27676392 0.7015381l0 0c0 0.5479126 -0.42303467 0.99212646 -0.94488525 0.99212646l0 0c-0.5218506 0 -0.94488525 -0.44421387 -0.94488525 -0.99212646z" fill-rule="evenodd"/><path fill="#eeeeee" d="m274.76 171.85995l0 0c0 -0.5479431 0.42303467 -0.99212646 0.94488525 -0.99212646l0 0c0.25057983 0 0.49093628 0.104522705 0.66812134 0.29058838c0.17721558 0.18605042 0.27676392 0.43840027 0.27676392 0.7015381l0 0c0 0.54792786 -0.42303467 0.99212646 -0.94488525 0.99212646l0 0c-0.5218506 0 -0.94488525 -0.4441986 -0.94488525 -0.99212646z" fill-rule="evenodd"/><path fill="#eeeeee" d="m239.70064 114.94113l0 0c0 -0.5479355 0.42303467 -0.99211884 0.94488525 -0.99211884l0 0c0.2505951 0 0.49093628 0.104522705 0.6681366 0.29058075c0.17720032 0.18606567 0.27674866 0.43841553 0.27674866 0.7015381l0 0c0 0.5479431 -0.42303467 0.99212646 -0.94488525 0.99212646l0 0c-0.5218506 0 -0.94488525 -0.44418335 -0.94488525 -0.99212646z" fill-rule="evenodd"/><path fill="#eeeeee" d="m422.35358 144.22765l0 0c0 -0.5479431 0.42303467 -0.99212646 0.94488525 -0.99212646l0 0c0.25061035 0 0.49093628 0.104522705 0.66815186 0.29058838c0.17718506 0.18605042 0.2767334 0.43840027 0.2767334 0.7015381l0 0c0 0.54792786 -0.42303467 0.99212646 -0.94488525 0.99212646l0 0c-0.5218506 0 -0.94488525 -0.4441986 -0.94488525 -0.99212646z" fill-rule="evenodd"/><path fill="#eeeeee" d="m318.4668 217.69566l0 0c0 -0.54792786 0.42303467 -0.99212646 0.94488525 -0.99212646l0 0c0.25057983 0 0.49093628 0.104537964 0.66812134 0.29058838c0.17718506 0.18606567 0.27676392 0.43841553 0.27676392 0.7015381l0 0c0 0.5479431 -0.4230652 0.99212646 -0.94488525 0.99212646l0 0c-0.5218506 0 -0.94488525 -0.44418335 -0.94488525 -0.99212646z" fill-rule="evenodd"/><path fill="#eeeeee" d="m318.4668 324.47845l0 0c0 -0.5479431 0.42303467 -0.99212646 0.94488525 -0.99212646l0 0c0.25057983 0 0.49093628 0.104522705 0.66812134 0.29055786c0.17718506 0.18606567 0.27676392 0.43841553 0.27676392 0.7015686l0 0c0 0.5479126 -0.4230652 0.99209595 -0.94488525 0.99209595l0 0c-0.5218506 0 -0.94488525 -0.44418335 -0.94488525 -0.99209595z" fill-rule="evenodd"/><path fill="#eeeeee" d="m318.4668 410.80737l0 0c0 -0.5479431 0.42303467 -0.99212646 0.94488525 -0.99212646l0 0c0.25057983 0 0.49093628 0.104522705 0.66812134 0.29058838c0.17718506 0.18606567 0.27676392 0.43841553 0.27676392 0.7015381l0 0c0 0.5479431 -0.4230652 0.99212646 -0.94488525 0.99212646l0 0c-0.5218506 0 -0.94488525 -0.44418335 -0.94488525 -0.99212646z" fill-rule="evenodd"/><path fill="#eeeeee" d="m476.47922 390.21176l0 0c0 -0.5479431 0.42303467 -0.99212646 0.94488525 -0.99212646l0 0c0.25057983 0 0.49090576 0.104522705 0.66812134 0.29058838c0.17718506 0.18603516 0.2767334 0.438385 0.2767334 0.7015381l0 0c0 0.5479126 -0.42303467 0.99212646 -0.94485474 0.99212646l0 0c-0.5218506 0 -0.94488525 -0.44421387 -0.94488525 -0.99212646z" fill-rule="evenodd"/></g></svg>